<?xml version="1.0" encoding="UTF-8"?>
<svg id="Calque_2" data-name="Calque 2" xmlns="http://www.w3.org/2000/svg" viewBox="0 0 244.12 28.13">
  <defs>
    <style>
      .cls-1 {
        fill: #f7e636;
      }

      .cls-2 {
        fill: #eee8cb;
      }

      .cls-3 {
        fill: #f0ffaf;
      }

      .cls-4 {
        fill: #f4f4f4;
      }

      .cls-5 {
        fill: #91af42;
      }

      .cls-6 {
        fill: #7f664e;
      }

      .cls-7 {
        fill: #92755a;
      }

      .cls-8 {
        fill: #9f613c;
      }

      .cls-9 {
        fill: #9dc44c;
      }

      .cls-10 {
        fill: #8d652e;
      }

      .cls-11 {
        fill: #bcd73d;
      }

      .cls-12 {
        fill: #cfe561;
      }

      .cls-13 {
        fill: #dcc72f;
      }

      .cls-14 {
        fill: #d5a456;
      }

      .cls-15 {
        fill: #424548;
      }

      .cls-16 {
        fill: #6eaade;
      }

      .cls-17 {
        fill: #897053;
      }

      .cls-18 {
        fill: #708739;
      }

      .cls-19 {
        fill: #95bd58;
      }

      .cls-19, .cls-20 {
        fill-rule: evenodd;
      }

      .cls-20 {
        fill: #cf4e3f;
      }
    </style>
  </defs>
  <g id="Calque_1-2" data-name="Calque 1">
    <g>
      <path class="cls-2" d="m20.9,18.83c-3.04,4.39-7.88.56-4.84-3.83,5.52-5.3,5.38-12.87,7.47-13.12,2.63-.32,4.58,7.5-2.64,16.95Z"/>
      <path class="cls-10" d="m1.62,18.16l-1.62,1.38c.4.63.85,1.23,1.35,1.78.81-.65,1.71-1.51,2.31-2.33-.71-.21-1.39-.49-2.04-.83Z"/>
      <path class="cls-1" d="m15.1,8.5c-3.37-.86-5.57,1.51-5.57,1.51,3.18-1.7,7.9,2.17,7.21,3.4-2.4,4.31-7.14,6.79-12.04,5.84-.36-.07-.7-.16-1.04-.26-.6.82-1.5,1.68-2.31,2.33,6.6,3.29,14.5,1.35,17.85-5.28,1.36-2.7-1.24-6.81-4.1-7.54Z"/>
      <path class="cls-13" d="m28.12,19.31s-.64-2.69-3.83-3.95c-3.11-1.23-5.09.68-5.09.68-2.53,4.53-7.5,7.13-12.65,6.14-1.54-.3-2.95-.9-4.21-1.73-.33.31-.67.61-1,.88,1.8,2.02,4.19,3.47,6.96,4.01,4.34.84,8.57-.76,11.44-3.89,4.41-5.56,8.38-2.13,8.38-2.13Z"/>
      <path class="cls-4" d="m15.26,18.33c1.37-.86,2.07-2.31,1.56-3.23-.16-.29-.44-.49-.77-.6-.08.12-.17.24-.25.35.24.1.45.25.57.47.41.75-.15,1.92-1.27,2.62-1.08.68-2.28.66-2.72-.03-.17.1-.35.2-.53.29,0,0,0,.01,0,.02.51.92,2.03.97,3.4.11Z"/>
      <path class="cls-16" d="m12.37,17.91c.45.69,1.64.71,2.72.03,1.11-.7,1.68-1.87,1.27-2.62-.12-.22-.32-.37-.57-.47-.95,1.25-2.11,2.29-3.42,3.06Z"/>
      <path class="cls-1" d="m28.12,19.31c.1,2.48-1.72,6.4-4.84,6.92-3.12.52,3.95-9.29-.76-11.28,0,0,5.42,0,5.6,4.36Z"/>
      <path class="cls-13" d="m15.9,8.79c-6.96-2.86-9.32,5.92-5.84,4.88,1.26-.38,1.98-2.97,5.84-4.88Z"/>
    </g>
    <g>
      <path class="cls-7" d="m88.71,28.13C66.43,28.13,66.43,0,88.71,0v28.12Z"/>
      <ellipse class="cls-6" cx="88.71" cy="14.06" rx="11.41" ry="14.06"/>
      <ellipse class="cls-11" cx="88.71" cy="14.06" rx="10.75" ry="13.25"/>
      <ellipse class="cls-12" cx="88.71" cy="14.06" rx="9.4" ry="11.58"/>
      <path class="cls-11" d="m96.1,16.54c-.15.67-2.89-.01-3.16.56-.28.59,1.55,3.19,1.16,3.66-.39.48-2.49-1.8-2.96-1.46-.47.33.06,3.71-.47,3.89-.52.17-1.42-3.08-1.97-3.09-.54,0-1.45,3.25-1.99,3.07-.54-.18,0-3.56-.46-3.89-.48-.34-2.59,1.91-2.97,1.43-.39-.48,1.46-3.06,1.19-3.65-.27-.58-3.01.07-3.15-.59-.14-.65,2.5-1.75,2.51-2.43,0-.66-2.64-1.79-2.49-2.45.15-.67,2.89,0,3.16-.56.28-.59-1.55-3.19-1.16-3.66.39-.48,2.49,1.8,2.96,1.46.47-.34-.06-3.71.48-3.89.52-.17,1.42,3.09,1.97,3.09.54,0,1.45-3.25,1.99-3.07.54.18,0,3.56.46,3.89.48.34,2.59-1.91,2.97-1.43.39.48-1.46,3.06-1.19,3.65.27.59,3.01-.07,3.15.59.14.65-2.5,1.75-2.51,2.43,0,.66,2.64,1.79,2.49,2.45Z"/>
      <polygon class="cls-3" points="94.96 14.06 91.18 14.88 94.12 17.91 90.52 16.28 91.84 20.72 89.38 17.1 88.71 21.75 88.05 17.1 85.59 20.72 86.91 16.28 83.31 17.91 86.25 14.88 82.47 14.06 86.25 13.25 83.31 10.21 86.91 11.84 85.59 7.4 88.05 11.03 88.71 6.37 89.38 11.03 91.84 7.4 90.52 11.84 94.12 10.22 91.18 13.25 94.96 14.06"/>
      <polygon class="cls-15" points="87.42 7.21 87.22 8.34 87.83 9.23 88.03 8.1 87.42 7.21"/>
      <polygon class="cls-15" points="86.23 5.63 86.02 6.76 86.63 7.65 86.84 6.51 86.23 5.63"/>
      <polygon class="cls-15" points="90.47 6.96 89.67 7.58 89.59 8.74 90.39 8.12 90.47 6.96"/>
      <polygon class="cls-15" points="90 20.91 90.21 19.78 89.6 18.9 89.39 20.03 90 20.91"/>
      <polygon class="cls-15" points="91.2 22.5 91.4 21.36 90.79 20.48 90.58 21.61 91.2 22.5"/>
      <polygon class="cls-15" points="86.96 21.16 87.76 20.54 87.84 19.38 87.04 20 86.96 21.16"/>
      <polygon class="cls-15" points="94.27 12.47 93.35 12.22 92.64 12.97 93.55 13.22 94.27 12.47"/>
      <polygon class="cls-15" points="95.56 11 94.64 10.75 93.92 11.5 94.84 11.76 95.56 11"/>
      <polygon class="cls-15" points="94.47 16.22 93.97 15.24 93.03 15.14 93.53 16.13 94.47 16.22"/>
      <polygon class="cls-15" points="83.15 15.65 84.07 15.91 84.79 15.16 83.87 14.9 83.15 15.65"/>
      <polygon class="cls-15" points="81.87 17.12 82.79 17.38 83.51 16.63 82.59 16.37 81.87 17.12"/>
      <polygon class="cls-15" points="82.95 11.9 83.46 12.89 84.4 12.98 83.89 12 82.95 11.9"/>
      <polygon class="cls-15" points="93.17 9.67 92.25 9.93 91.87 10.99 92.79 10.73 93.17 9.67"/>
      <polygon class="cls-15" points="93.81 7.66 92.89 7.92 92.51 8.98 93.43 8.72 93.81 7.66"/>
      <polygon class="cls-15" points="83.61 20.47 84.53 20.21 84.92 19.15 84 19.4 83.61 20.47"/>
      <polygon class="cls-15" points="85.15 8.57 85.36 9.7 86.22 10.18 86.01 9.04 85.15 8.57"/>
      <polygon class="cls-15" points="83.52 7.78 83.73 8.91 84.59 9.38 84.38 8.25 83.52 7.78"/>
      <polygon class="cls-15" points="93.91 20.35 93.7 19.21 92.84 18.74 93.05 19.87 93.91 20.35"/>
    </g>
    <g>
      <path class="cls-19" d="m157.8,1.36c.53,1.16-.25,5.09-.25,5.09,0,0-3.53-2.07-4.05-3.23-.53-1.16,0-2.51,1.19-3.02,1.19-.51,2.58,0,3.11,1.16Z"/>
      <path class="cls-17" d="m158.68,6.71h-1.23c0-2,1.12-5.43,5.63-5.43v1.2c-4.1,0-4.4,3.84-4.4,4.24Z"/>
      <path class="cls-20" d="m158.06,6.49c-3.4-3.49-13.59-3.64-13.59,6.32,0,6.3,7.4,15.32,10.63,15.32,1.46,0,1.99-.92,2.84-.92s1.14.91,3.02.91c3.23,0,10.7-8.99,10.7-15.32,0-9.96-10.19-9.81-13.59-6.32Z"/>
    </g>
    <g>
      <path class="cls-18" d="m223,4.33c2.29,2.29,2.65,3.85,1.92,4.59-.74.74-2.29.38-4.59-1.92-2.29-2.29-3.72-6.39-3.72-6.39,0,0,4.09,1.43,6.39,3.72Z"/>
      <path class="cls-18" d="m226.18,5.68c1.37,2.94,1.18,4.53.23,4.97-.94.44-2.28-.43-3.65-3.37C221.38,4.34,221.44,0,221.44,0c0,0,3.36,2.74,4.73,5.68Z"/>
      <path class="cls-18" d="m228.95,9.02c-1.35,2.95-2.68,3.83-3.63,3.4-.95-.43-1.15-2.02.2-4.97s4.69-5.71,4.69-5.71c0,0,.09,4.34-1.26,7.29Z"/>
      <path class="cls-18" d="m227.68,7.48c-.19,3.24-1.11,4.54-2.15,4.48-1.04-.06-1.81-1.46-1.62-4.7.19-3.24,2.3-7.03,2.3-7.03,0,0,1.66,4.01,1.47,7.25Z"/>
      <path class="cls-18" d="m230.63,10.3c-2.09,2.49-3.6,2.98-4.4,2.31-.8-.67-.57-2.25,1.51-4.74,2.09-2.49,6.04-4.26,6.04-4.26,0,0-1.06,4.2-3.15,6.69Z"/>
      <path class="cls-18" d="m221.68,10.18c2.94,1.37,4.53,1.18,4.97.23.44-.94-.43-2.28-3.37-3.65-2.94-1.37-7.28-1.31-7.28-1.31,0,0,2.74,3.36,5.68,4.73Z"/>
      <path class="cls-18" d="m225.02,12.95c2.95-1.35,3.83-2.68,3.4-3.63-.43-.95-2.02-1.15-4.97.2-2.95,1.35-5.71,4.69-5.71,4.69,0,0,4.33.09,7.28-1.26Z"/>
      <path class="cls-18" d="m223.48,11.68c3.24-.19,4.54-1.11,4.48-2.15-.06-1.04-1.46-1.81-4.7-1.62-3.24.19-7.03,2.3-7.03,2.3,0,0,4.01,1.66,7.25,1.47Z"/>
      <path class="cls-18" d="m226.3,14.63c2.49-2.09,2.98-3.6,2.31-4.4-.67-.8-2.25-.57-4.74,1.51-2.49,2.09-4.26,6.04-4.26,6.04,0,0,4.2-1.06,6.69-3.15Z"/>
      <path class="cls-8" d="m241.27,13.69c3.75,3.75,2.7,7.89-.5,11.09-3.2,3.2-7.34,4.25-11.09.5-3.75-3.75-6.91-12.1-3.71-15.29,3.2-3.2,11.55-.04,15.29,3.71Z"/>
      <path class="cls-14" d="m237.12,21.12c-.46.46-.99,2.04-.57,2.46.42.42,2-.11,2.46-.57.46-.46.99-2.04.57-2.46-.42-.42-2,.11-2.46.57Z"/>
      <path class="cls-14" d="m239.85,23.85c-.46.46-.85,2.17-.43,2.6.42.42,3.45-2.6,3.03-3.03-.42-.42-2.14-.03-2.6.43Z"/>
      <path class="cls-14" d="m231.39,15.39c-.46.46-.99,2.04-.57,2.46.42.42,2-.11,2.46-.57.46-.46.99-2.04.57-2.46-.42-.42-2,.11-2.46.57Z"/>
      <path class="cls-14" d="m234.25,18.25c-.46.46-.99,2.04-.57,2.46.42.42,2-.11,2.46-.57.46-.46.99-2.04.57-2.46-.42-.42-2,.11-2.46.57Z"/>
      <path class="cls-14" d="m228.64,12.64c-.46.46-.99,2.04-.57,2.46.42.42,2-.11,2.46-.57.46-.46.99-2.04.57-2.46-.42-.42-2,.11-2.46.57Z"/>
      <path class="cls-14" d="m228.72,23.44c-.65.65-.47,2.72,1.68,3.26.57.14,1.64-3.49,1.22-3.91-.79-.79-2.48.24-2.9.65Z"/>
      <path class="cls-14" d="m232.15,26.09c-1.64,1.64,1.1,2.69,2.21,1.58.42-.42.55-1.59.12-2.02-.42-.42-1.91.02-2.33.44Z"/>
      <path class="cls-14" d="m232.94,22.03c-.46.46-.98,2.39-.56,2.81.42.42,2.45-.01,2.9-.47.46-.46.72-2.26.29-2.68-.42-.42-2.18-.11-2.63.34Z"/>
      <path class="cls-14" d="m235.85,24.93c-.46.46-.83,2.2-.4,2.62.79.79,2.28.16,2.73-.29.46-.46.72-2.31.29-2.73-.42-.42-2.17-.05-2.62.4Z"/>
      <path class="cls-14" d="m230.16,19.25c-.46.46-1.1,2.27-.68,2.69.42.42,2.4-.07,2.85-.52.46-.46.83-2.2.41-2.62-.42-.42-2.12,0-2.58.45Z"/>
      <path class="cls-14" d="m224.71,13.72c-.46.46-.67,1.71-.24,2.14.42.42,1.68.21,2.14-.24.46-.46.99-2.04.57-2.46s-2,.11-2.46.57Z"/>
      <path class="cls-14" d="m224.74,16.9c-.42.42.36,3.05.77,2.63.42-.42,1.15-2.19.72-2.62-.42-.42-1.08-.43-1.5-.02Z"/>
      <path class="cls-14" d="m226.46,20.32c-.54.54-.66,2.92.87,3.12.58.08,1.95-2.99,1.52-3.42-.42-.42-1.97-.12-2.39.29Z"/>
      <path class="cls-14" d="m227.36,16.45c-.46.46-.86,2.22-.44,2.64.42.42,2.24.07,2.69-.38.46-.46.76-2.22.33-2.64-.42-.42-2.13-.07-2.59.38Z"/>
      <path class="cls-14" d="m239.44,12.72c.65-.65,2.72-.47,3.26,1.68.14.57-3.49,1.64-3.91,1.22-.79-.79.24-2.48.65-2.9Z"/>
      <path class="cls-14" d="m242.09,16.15c1.64-1.64,2.69,1.1,1.58,2.21-.42.42-1.6.55-2.02.12-.42-.42.02-1.91.44-2.33Z"/>
      <path class="cls-14" d="m238.03,16.94c.46-.46,2.39-.98,2.81-.56s-.01,2.45-.47,2.9c-.46.46-2.26.71-2.68.29-.42-.42-.11-2.18.34-2.63Z"/>
      <path class="cls-14" d="m240.93,19.84c.46-.46,2.2-.83,2.62-.4.79.79.16,2.28-.29,2.73-.46.46-2.31.72-2.73.29-.42-.42-.05-2.17.4-2.62Z"/>
      <path class="cls-14" d="m235.25,14.16c.46-.46,2.27-1.1,2.69-.68.42.42-.06,2.4-.52,2.85-.46.46-2.2.83-2.62.41-.42-.42,0-2.12.45-2.58Z"/>
      <path class="cls-14" d="m229.72,8.71c.46-.46,1.71-.67,2.14-.24.42.42.21,1.68-.24,2.14-.46.46-2.04.99-2.46.57-.42-.42.11-2,.57-2.46Z"/>
      <path class="cls-14" d="m232.9,8.74c.42-.42,3.05.36,2.63.77-.42.42-2.19,1.15-2.62.72-.42-.42-.43-1.08-.02-1.5Z"/>
      <path class="cls-14" d="m236.32,10.46c.55-.54,2.92-.66,3.13.87.08.58-2.99,1.95-3.42,1.52-.42-.42-.12-1.97.29-2.39Z"/>
      <path class="cls-14" d="m232.45,11.36c.46-.46,2.22-.86,2.64-.44.42.42.07,2.24-.38,2.69-.46.46-2.22.76-2.64.33-.42-.42-.07-2.13.38-2.59Z"/>
      <path class="cls-5" d="m225.33,7.7c1.75,1.75,2.12,2.85,1.66,3.3-.45.45-1.55.08-3.29-1.66-1.75-1.75-3.04-4.67-3.04-4.67,0,0,2.92,1.29,4.67,3.04Z"/>
      <path class="cls-5" d="m227.12,13.83c1.55-1.24,1.77-2.25,1.25-2.85-.52-.6-1.59-.57-3.14.68-1.55,1.24-2.47,3.82-2.47,3.82,0,0,2.81-.41,4.35-1.65Z"/>
      <path class="cls-5" d="m225.09,10.39c2.18-.02,3.23.55,3.39,1.27.16.72-.62,1.31-2.8,1.33-2.18.02-5.11-1.26-5.11-1.26,0,0,2.33-1.33,4.51-1.35Z"/>
      <path class="cls-5" d="m224.86,8.62c2.24.61,3.14,1.42,3.1,2.11-.04.69-1.01,1-3.24.4-2.24-.61-4.86-2.59-4.86-2.59,0,0,2.76-.53,5,.08Z"/>
      <path class="cls-5" d="m229.83,11.12c-1.24,1.55-2.25,1.77-2.85,1.25-.6-.52-.57-1.59.68-3.14,1.24-1.55,3.82-2.47,3.82-2.47,0,0-.41,2.81-1.65,4.35Z"/>
      <path class="cls-5" d="m226.39,9.09c-.02,2.18.55,3.23,1.27,3.39.72.16,1.31-.62,1.33-2.8.02-2.18-1.26-5.11-1.26-5.11,0,0-1.33,2.33-1.35,4.51Z"/>
      <path class="cls-5" d="m224.62,8.86c.61,2.24,1.42,3.14,2.11,3.1.69-.04,1-1.01.4-3.24-.61-2.24-2.59-4.86-2.59-4.86,0,0-.53,2.76.08,5Z"/>
      <path class="cls-9" d="m229.03,9.63c-.52-1.01-1.57-1.79-1.57-1.79,0,0-.36.79-.56,1.7-1-.43-2.65-1.28-2.65-1.28,0,0,.85,1.65,1.28,2.65-.91.2-1.7.56-1.7.56,0,0,.78,1.04,1.79,1.57-.77,1.09-1.15,2.57-1.15,2.57,0,0,2.92-.86,4.59-2.53,1.67-1.67,2.53-4.59,2.53-4.59,0,0-1.48.38-2.57,1.15Z"/>
    </g>
  </g>
</svg>