<?xml version="1.0" encoding="UTF-8"?>
<svg id="Calque_2" data-name="Calque 2" xmlns="http://www.w3.org/2000/svg" viewBox="0 0 244.71 27.9">
  <defs>
    <style>
      .cls-1 {
        fill: #f7e446;
      }

      .cls-2 {
        fill: #e59265;
      }

      .cls-3 {
        fill: #efc255;
      }

      .cls-4 {
        fill: #816247;
      }

      .cls-5 {
        fill: #997354;
      }

      .cls-6, .cls-7 {
        fill: #9dc44c;
      }

      .cls-8, .cls-9 {
        fill: #8fb346;
      }

      .cls-10 {
        fill: #c1734c;
      }

      .cls-11 {
        fill: #de5656;
      }

      .cls-12 {
        fill: #dbff86;
      }

      .cls-13 {
        fill: #dc983b;
      }

      .cls-14 {
        fill: #897053;
      }

      .cls-15 {
        fill: #6f8a37;
      }

      .cls-16 {
        fill: #708739;
      }

      .cls-17 {
        fill: #424548;
      }

      .cls-17, .cls-18, .cls-7, .cls-9 {
        fill-rule: evenodd;
      }

      .cls-18 {
        fill: #85a542;
      }
    </style>
  </defs>
  <g id="Calque_1-2" data-name="Calque 1">
    <g>
      <path class="cls-4" d="m15.05,3.3c0-1.07-1.58-1.27-1.58-.23,0,1.23-.63,1.67-.63,2.33,0,.82,1.87.97,1.87.09,0-.87.35-.74.35-2.2Z"/>
      <path class="cls-5" d="m14.46,3.16c1.29,0-1.07-1.67-1.07-.13,0,1.23-.88,1.8-.5,2.6.83-1.04.21-2.47,1.56-2.47Z"/>
      <path class="cls-2" d="m1.14,14.26c0-7.54,6.14-12.14,12.67-8.61,6.64-3.35,14.09,1.08,14.09,8.61,0,6.77-3.7,10.55-8.36,12.28-1.68.63-4.83,1.38-6.62,1.35-1.31-.02-1.28-.68-2.53-1.06-5.06-1.5-9.25-5.39-9.25-12.58Z"/>
      <path class="cls-6" d="m14.15,2.95c-.05,0-.11-.03-.14-.09-.93-1.39-1.83-1.07-1.83-1.07l-.1-.47s1.13-.39,2.21,1.22c.07.1.06.26-.02.34-.04.04-.08.06-.12.06Z"/>
      <path class="cls-9" d="m10.37.03C5.73-.42.95,4.93.95,4.93c0,0,3.25-1.23,6.07-.64,2.86.6,5.32-2.79,5.32-2.79,0,0-.66-1.34-1.98-1.47Z"/>
      <path class="cls-7" d="m6.04,3.73C3.63,6.98,0,8.85,0,8.85c0,0,6.91.72,11.12-4.11,1.19-1.36,1.22-3.31,1.22-3.31,0,0-3.85-.99-6.3,2.31Z"/>
      <path class="cls-8" d="m12.34,1.42c-.49.09-1.01.25-1.54.47-.54.22-1.09.52-1.63.86-1.09.69-2.07,1.57-3.03,2.37-.96.82-1.95,1.58-2.99,2.22-1.04.63-2.1,1.11-3.15,1.51.5-.12,1.02-.3,1.55-.51.53-.22,1.08-.48,1.62-.79,1.09-.61,2.15-1.42,3.13-2.24.98-.83,1.91-1.67,2.93-2.37,1.01-.7,2.08-1.19,3.11-1.52Z"/>
      <path class="cls-10" d="m17.89,14.82c.2,1.66.12,3.32-.33,4.89-.46,1.57-1.32,3.03-2.72,4.28,1.95-.73,3.37-2.18,4.15-3.82.8-1.64,1.01-3.48.79-5.31-.23-1.83-.87-3.66-1.99-5.37-1.09-1.68-2.69-3.31-4.79-4.24,1.62,1.38,2.66,2.97,3.44,4.59.75,1.63,1.23,3.3,1.43,4.97Z"/>
    </g>
    <g>
      <path class="cls-18" d="m84.43,1.23c-3.36-1.51-5.69,3.19-5.69,3.19,0,0,.96,2.2,2.48,2.67,5.38,1.64,10.06-5.58,10.06-5.58,0,0-3.54,1.22-6.85-.27Z"/>
      <path class="cls-14" d="m75.51,2.73c-.18-.02-.24.68-.06.71,2.96.64,4.18,2.85,4.28,3.26.14.57.97-.04.69-.73-.06-.14-1.8-2.87-4.9-3.25Z"/>
      <path class="cls-16" d="m98.23,25.97c.12.13.71.28.98,0,.27-.28.12-.88,0-1.01-.12-.13-.44,0-.71.27-.27.28-.39.61-.26.74Z"/>
      <path class="cls-1" d="m79.38,7.93c-.24-.32.06-1.09.71-1.76.64-.67,1.38-.98,1.7-.73,3.9-2.53,9.87-1.35,14.15,3.08,3.82,3.96,5.14,9.31,3.63,13.29.76.98.49,2.65-.67,3.84-1.16,1.2-2.77,1.48-3.72.69-3.84,1.55-9,.19-12.82-3.77-4.28-4.43-5.42-10.6-2.97-14.65Z"/>
      <path class="cls-7" d="m80.02,6.56c-.68-1.95-3.54-3.07-3.54-3.07,0,0-5.87,3.31-3.74,7.6,2.1,4.23.75,8.91.75,8.91,0,0,8.94-6.53,6.54-13.44Z"/>
      <path class="cls-8" d="m76.48,3.48c-.42.54-.77,1.15-1.07,1.81-.28.66-.47,1.38-.57,2.12-.21,1.48-.02,2.95.08,4.36.12,1.42.14,2.84-.1,4.23-.24,1.39-.74,2.73-1.34,4,.39-.57.72-1.19,1.01-1.84.28-.66.51-1.35.68-2.06.34-1.43.33-2.95.22-4.38-.12-1.44-.31-2.85-.19-4.25.11-1.41.6-2.76,1.28-3.97Z"/>
    </g>
    <g>
      <path class="cls-11" d="m144.58,22.45c7.52,7.27,20.26,7.27,27.81-.03L158.47,0l-13.89,22.45Z"/>
      <path class="cls-12" d="m146.38,19.55l-.52.72c5.51,4.84,17.15,6.74,25.26-.03l-.52-.71c-7.06,5.34-17.18,5.34-24.22.02Z"/>
      <path class="cls-6" d="m145.86,20.27l-1.33,2.15c7.53,7.32,20.34,7.32,27.9-.03l-1.32-2.14c-7.2,5.79-18.07,5.79-25.25.03Z"/>
      <path class="cls-17" d="m151.05,16.99c0-.6,1.09-2.14,1.09-2.14,0,0,1.14,1.59,1.15,2.19,0,.6-.49,1.08-1.11,1.06-.62-.01-1.13-.52-1.14-1.12Z"/>
      <path class="cls-17" d="m156.82,19.12c0-.6,1.09-2.14,1.09-2.14,0,0,1.14,1.59,1.15,2.19,0,.6-.49,1.08-1.11,1.06-.62-.01-1.13-.52-1.14-1.12Z"/>
      <path class="cls-17" d="m160.59,13.73c0-.6,1.09-2.14,1.09-2.14,0,0,1.14,1.59,1.15,2.19,0,.6-.49,1.08-1.11,1.06-.62-.01-1.13-.52-1.14-1.12Z"/>
      <path class="cls-17" d="m164.41,18.82c0-.6,1.09-2.14,1.09-2.14,0,0,1.14,1.59,1.15,2.19,0,.6-.49,1.08-1.11,1.06-.62-.01-1.13-.52-1.14-1.12Z"/>
      <path class="cls-17" d="m156.24,8.78c0-.6,1.09-2.14,1.09-2.14,0,0,1.14,1.59,1.15,2.19,0,.6-.49,1.08-1.11,1.06-.62-.01-1.13-.52-1.14-1.12Z"/>
      <path class="cls-16" d="m156.73,24.52v3.31c1.17.1,2.34.09,3.51,0v-3.31c-1.17.1-2.34.1-3.51,0Z"/>
      <path class="cls-16" d="m148.51,22.04l-1.01,2.71c1,.64,2.04,1.17,3.13,1.62l1.09-2.9c-1.1-.38-2.18-.85-3.2-1.43Z"/>
      <path class="cls-16" d="m168.45,22.03c-1.03.57-2.1,1.05-3.2,1.43l1.09,2.9c1.08-.45,2.13-.98,3.13-1.62l-1.01-2.71Z"/>
    </g>
    <g>
      <path class="cls-15" d="m229.91,4.42l.09-.56s1.69.98,3.63.33l.11.36c-2.1.7-3.77-.09-3.84-.13Z"/>
      <ellipse class="cls-13" cx="228.84" cy="16.79" rx="12.04" ry="11.11"/>
      <path class="cls-9" d="m226.08,7.85c.08-.56,2.17-.26,2.17-.26,0,0-.09-1.39.26-1.47.4-.1.99,1.32.99,1.32,0,0,1.7-.67,1.9-.23.18.38-1.18,1.19-1.18,1.19,0,0,1.77,1.42,1.42,1.89-.38.51-2.29-1.01-2.29-1.01,0,0-1.19,2.04-1.73,1.75-.51-.28.42-2.33.42-2.33,0,0-2.05-.33-1.97-.87Z"/>
      <polyline class="cls-3" points="224.53 12.6 224.17 12.97 224.53 13.34 224.89 12.97 224.53 12.6"/>
      <polyline class="cls-3" points="221.73 12.39 221.37 12.76 221.73 13.13 222.09 12.76 221.73 12.39"/>
      <polyline class="cls-3" points="219.48 12.39 219.12 12.76 219.48 13.13 219.84 12.76 219.48 12.39"/>
      <polyline class="cls-3" points="226.08 14.15 225.72 14.52 226.08 14.89 226.44 14.52 226.08 14.15"/>
      <polyline class="cls-3" points="224.53 16.05 224.17 16.42 224.53 16.79 224.89 16.42 224.53 16.05"/>
      <polyline class="cls-3" points="222.09 16.05 221.73 16.42 222.09 16.79 222.45 16.42 222.09 16.05"/>
      <polyline class="cls-3" points="219.31 16.26 218.95 16.63 219.31 17 219.67 16.63 219.31 16.26"/>
      <polyline class="cls-3" points="223.31 14.24 222.95 14.61 223.31 14.98 223.67 14.61 223.31 14.24"/>
      <polyline class="cls-3" points="220.87 14.24 220.51 14.61 220.87 14.98 221.23 14.61 220.87 14.24"/>
      <polyline class="cls-3" points="218.44 14.24 218.08 14.61 218.44 14.98 218.8 14.61 218.44 14.24"/>
      <polyline class="cls-3" points="225.83 10.96 225.47 11.33 225.83 11.7 226.19 11.33 225.83 10.96"/>
      <polyline class="cls-3" points="223.14 10.96 222.78 11.33 223.14 11.7 223.5 11.33 223.14 10.96"/>
      <polyline class="cls-3" points="220.51 10.59 220.15 10.96 220.51 11.33 220.87 10.96 220.51 10.59"/>
      <polyline class="cls-3" points="224.81 9.53 224.44 9.9 224.81 10.27 225.17 9.9 224.81 9.53"/>
      <polyline class="cls-3" points="223.78 8.13 223.42 8.5 223.78 8.87 224.14 8.5 223.78 8.13"/>
      <polyline class="cls-3" points="222.09 9.16 221.73 9.53 222.09 9.9 222.45 9.53 222.09 9.16"/>
      <polyline class="cls-3" points="223.31 17.91 222.95 18.28 223.31 18.65 223.67 18.28 223.31 17.91"/>
      <polyline class="cls-3" points="220.74 17.91 220.38 18.28 220.74 18.65 221.1 18.28 220.74 17.91"/>
      <path class="cls-7" d="m237.92,1.95c3.01,2.51,6.78,1.81,6.78,1.81,0,0-6.11,7.67-11.15,4.53-4.73-2.94,0-9.99,4.37-6.35Z"/>
      <path class="cls-15" d="m230.06.39l-.87.43c1.37,4.34-.31,6.75-.72,7.14-.57.55.75,1.08,1.34.28.12-.17,1.86-2.76.25-7.85Z"/>
      <path class="cls-6" d="m229.63,0c.26,0,.46.28.46.62s-.21.62-.46.62-.46-.28-.46-.62S229.37,0,229.63,0Z"/>
      <path class="cls-8" d="m231.61,4.55c.47-.33.98-.59,1.52-.78.55-.18,1.12-.27,1.7-.28,1.17-.01,2.28.35,3.36.62,1.08.29,2.17.49,3.27.43,1.1-.05,2.19-.36,3.24-.77-.49.29-1.01.53-1.54.73-.54.18-1.1.32-1.67.39-1.15.14-2.31-.05-3.41-.34-1.1-.29-2.16-.64-3.26-.71-1.1-.07-2.2.22-3.22.72Z"/>
    </g>
  </g>
</svg>